<?xml version="1.0" encoding="utf-8"?>
<!-- Generator: Adobe Adobe Illustrator 24.2.0, SVG Export Plug-In . SVG Version: 6.00 Build 0)  -->
<svg version="1.1" xmlns="http://www.w3.org/2000/svg" xmlns:xlink="http://www.w3.org/1999/xlink" x="0px" y="0px"
	 viewBox="0 0 1296 1728" style="enable-background:new 0 0 1296 1728;" xml:space="preserve">
<style type="text/css">
	.st0{display:none;}
	.st1{display:inline;fill:#64C449;}
	.st2{font-family:'Tachyon-Hairline';}
	.st3{font-size:399.2264px;}
	.st4{fill:#ED64AB;stroke:#000000;stroke-width:2;stroke-miterlimit:10;}
	.st5{fill:#F5EB26;stroke:#000000;stroke-width:2;stroke-miterlimit:10;}
	.st6{display:inline;fill:#F76895;stroke:#000000;stroke-miterlimit:10;}
	.st7{font-family:'ChangelingNeo-Inline';}
	.st8{font-size:175.9361px;}
	.st9{display:inline;fill:#F5EB26;stroke:#000000;stroke-width:1.0009;stroke-miterlimit:10;}
	.st10{fill:#4843A3;}
	.st11{font-family:'Tight-Regular';}
	.st12{font-size:197.5798px;}
	.st13{fill:#64C449;}
	.st14{fill:#F5EB26;}
	.st15{opacity:0.6314;fill:#741F96;}
	.st16{opacity:0.6314;fill:#FDA11A;}
	.st17{opacity:0.6314;fill:#FB2872;}
	.st18{display:inline;}
	.st19{display:inline;opacity:0.7412;}
	.st20{fill:#2B4B77;stroke:#2B4B77;stroke-miterlimit:10;}
	.st21{fill:#741F96;stroke:#000000;stroke-width:0.631;stroke-miterlimit:10;}
	.st22{display:inline;fill:#741F96;stroke:#000000;stroke-width:0.6091;stroke-miterlimit:10;}
	.st23{display:inline;fill:#741F96;stroke:#000000;stroke-width:0.6092;stroke-miterlimit:10;}
	.st24{fill:#741F96;stroke:#000000;stroke-width:0.5506;stroke-miterlimit:10;}
	.st25{display:inline;fill:#741F96;stroke:#000000;stroke-width:0.5538;stroke-miterlimit:10;}
	.st26{display:inline;fill:#741F96;stroke:#000000;stroke-width:0.5804;stroke-miterlimit:10;}
	.st27{fill:#741F96;stroke:#000000;stroke-width:0.5537;stroke-miterlimit:10;}
	.st28{display:inline;fill:#3172B6;stroke:#000000;stroke-width:0.0817;stroke-miterlimit:10;}
</style>
<g id="Layer_5" class="st0">
	<text transform="matrix(1 0 0 1 89.4292 816.5303)" class="st1 st2 st3">minifi</text>
</g>
<g id="Layer_4" class="st0">
	<g>
		<g>
			<g>
			</g>
			<path class="st4" d="M247.98,1279.11c0.13,60.45,0.4,122.26,0.4,181.35c31.18,0.36,62.35,0.71,93.53,1.07
				c0-13.04-0.45-38.59-0.45-38.59s-42.08,1.65-63.06,1.65c-0.07-13.77-0.13-23.9-0.2-37.67c13.2,0,24.97-0.94,37.73-0.94
				c3.35-0.21,7.28-0.15,10.63-0.36c0-15.46,0.35-10.17,0.35-41.97c-14.59,0.23-34.2,0.75-48.79,0.98c0-11.44-0.48-29.48-0.48-41.29
				c21.7,0,66.34-1.03,66.34-1.03s-0.19-19.02-0.19-32.54c-32.78,0-63.79,0.3-95.8,0.3
				C247.98,1275.13,247.99,1278.56,247.98,1279.11z"/>
			<path class="st4" d="M417.37,1461.6c-20.07-85.88-21.04-86.1-45.73-191.75c13.41,0,17.08,0.27,38.45,0.27
				c10.6,45.37,21.33,91.87,32.93,136.85c6.24,0,6.8,0.03,10.71,0.03c6.31-43.95,12.88-89.85,19.19-133.81
				c13.18,0,16.64-0.27,36.72-0.27c-8.33,57.08-15.92,99.69-28.83,188.08C456.3,1461,449.16,1461.6,417.37,1461.6z"/>
			<path class="st4" d="M537.24,1460.99c0,0,0-192.25,0.03-190.12c14.63-0.35,43.88-1.06,43.88-1.06v191.61
				C581.15,1461.42,534.81,1461.42,537.24,1460.99z"/>
			<g>
			</g>
			<path class="st4" d="M785.19,1461.97l0.05-187.39v-0.08c0,0,0,0,0,0c0.23,0,0.33,0,0.65,0c21.78-0.27,42.86-0.39,63.6-1.12
				c26.32,105.96,27.45,110.19,40.55,156.3c0-87.66,0.13-110.75,0.13-155.4c14.77,0,16.94-0.85,31.03-0.5
				c0.14,65.42-1.83,123.89-1.69,189.3c-16.88,0.18-40.8-1.18-57.68-1c-12.82-52.01-25.18-99.39-41.05-151.79
				c4.15,50.86,9.76,106.44,13.55,152.91C813.5,1462.11,800.96,1461.97,785.19,1461.97z"/>
			<path class="st4" d="M1009.11,1321.96c-19.16,0-39.65,0.09-59.36,0.09c-0.6-20.54-0.42-27.09-1.02-47.63
				c47.14,0,106.98-0.55,154.86-0.55c1.02,21.92,1.14,26.88,1.14,47.81c-20.45-0.03-36.94,0.42-59.05,0.42
				c1.1,39.14,1.44,101.19,2.54,140.33c-13.82,0-26.45,0.27-41.72,0.27C1006.5,1417.61,1009.11,1346.15,1009.11,1321.96z"/>
		</g>
		<g>
			<g>
			</g>
			<path class="st4" d="M247.98,1279.11c0.13,60.45,0.4,122.26,0.4,181.35c31.18,0.36,62.35,0.71,93.53,1.07
				c0-13.04-0.45-38.59-0.45-38.59s-42.08,1.65-63.06,1.65c-0.07-13.77-0.13-23.9-0.2-37.67c13.2,0,24.97-0.94,37.73-0.94
				c3.35-0.21,7.28-0.15,10.63-0.36c0-15.46,0.35-10.17,0.35-41.97c-14.59,0.23-34.2,0.75-48.79,0.98c0-11.44-0.48-29.48-0.48-41.29
				c21.7,0,66.34-1.03,66.34-1.03s-0.19-19.02-0.19-32.54c-32.78,0-63.79,0.3-95.8,0.3
				C247.98,1275.13,247.99,1278.56,247.98,1279.11z"/>
			<path class="st4" d="M417.37,1461.6c-20.07-85.88-21.04-86.1-45.73-191.75c13.41,0,17.08,0.27,38.45,0.27
				c10.6,45.37,21.33,91.87,32.93,136.85c6.24,0,6.8,0.03,10.71,0.03c6.31-43.95,12.88-89.85,19.19-133.81
				c13.18,0,16.64-0.27,36.72-0.27c-8.33,57.08-15.92,99.69-28.83,188.08C456.3,1461,449.16,1461.6,417.37,1461.6z"/>
			<path class="st4" d="M537.24,1460.99c0,0,0-192.25,0.03-190.12c14.63-0.35,43.88-1.06,43.88-1.06v191.61
				C581.15,1461.42,534.81,1461.42,537.24,1460.99z"/>
			<g>
			</g>
			<path class="st4" d="M785.19,1461.97l0.05-187.39v-0.08c0,0,0,0,0,0c0.23,0,0.33,0,0.65,0c21.78-0.27,42.86-0.39,63.6-1.12
				c26.32,105.96,27.45,110.19,40.55,156.3c0-87.66,0.13-110.75,0.13-155.4c14.77,0,16.94-0.85,31.03-0.5
				c0.14,65.42-1.83,123.89-1.69,189.3c-16.88,0.18-40.8-1.18-57.68-1c-12.82-52.01-25.18-99.39-41.05-151.79
				c4.15,50.86,9.76,106.44,13.55,152.91C813.5,1462.11,800.96,1461.97,785.19,1461.97z"/>
			<path class="st4" d="M1009.11,1321.96c-19.16,0-39.65,0.09-59.36,0.09c-0.6-20.54-0.42-27.09-1.02-47.63
				c47.14,0,106.98-0.55,154.86-0.55c1.02,21.92,1.14,26.88,1.14,47.81c-20.45-0.03-36.94,0.42-59.05,0.42
				c1.1,39.14,1.44,101.19,2.54,140.33c-13.82,0-26.45,0.27-41.72,0.27C1006.5,1417.61,1009.11,1346.15,1009.11,1321.96z"/>
		</g>
		<g>
			<g>
			</g>
			<path class="st4" d="M263.98,1261.11c0.13,60.45,0.4,122.26,0.4,181.35c31.18,0.36,62.35,0.71,93.53,1.07
				c0-13.04-0.45-38.59-0.45-38.59s-42.08,1.65-63.06,1.65c-0.07-13.77-0.13-23.9-0.2-37.67c13.2,0,24.97-0.94,37.73-0.94
				c3.35-0.21,7.28-0.15,10.63-0.36c0-15.46,0.35-10.17,0.35-41.97c-14.59,0.23-34.2,0.75-48.79,0.98c0-11.44-0.48-29.48-0.48-41.29
				c21.7,0,66.34-1.03,66.34-1.03s-0.19-19.02-0.19-32.54c-32.78,0-63.79,0.3-95.8,0.3
				C263.98,1257.13,263.99,1260.56,263.98,1261.11z"/>
			<path class="st4" d="M433.37,1443.6c-20.07-85.88-21.04-86.1-45.73-191.75c13.41,0,17.08,0.27,38.45,0.27
				c10.6,45.37,21.33,91.87,32.93,136.85c6.24,0,6.8,0.03,10.71,0.03c6.31-43.95,12.88-89.85,19.19-133.81
				c13.18,0,16.64-0.27,36.72-0.27c-8.33,57.08-15.92,99.69-28.83,188.08C472.3,1443,465.16,1443.6,433.37,1443.6z"/>
			<path class="st4" d="M553.24,1442.99c0,0,0-192.25,0.03-190.12c14.63-0.35,43.88-1.06,43.88-1.06v191.61
				C597.15,1443.42,550.81,1443.42,553.24,1442.99z"/>
			<g>
			</g>
			<path class="st4" d="M801.19,1443.97l0.05-187.39v-0.08c0,0,0,0,0,0c0.23,0,0.33,0,0.65,0c21.78-0.27,42.86-0.39,63.6-1.12
				c26.32,105.96,27.45,110.19,40.55,156.3c0-87.66,0.13-110.75,0.13-155.4c14.77,0,16.94-0.85,31.03-0.5
				c0.14,65.42-1.83,123.89-1.69,189.3c-16.88,0.18-40.8-1.18-57.68-1c-12.82-52.01-25.18-99.39-41.05-151.79
				c4.15,50.86,9.76,106.44,13.55,152.91C829.5,1444.11,816.96,1443.97,801.19,1443.97z"/>
			<path class="st4" d="M1025.11,1303.96c-19.16,0-39.65,0.09-59.36,0.09c-0.6-20.54-0.42-27.09-1.02-47.63
				c47.14,0,106.98-0.55,154.86-0.55c1.02,21.92,1.14,26.88,1.14,47.81c-20.45-0.03-36.94,0.42-59.05,0.42
				c1.1,39.14,1.44,101.19,2.54,140.33c-13.82,0-26.45,0.27-41.72,0.27C1022.5,1399.61,1025.11,1328.15,1025.11,1303.96z"/>
		</g>
		<g>
			<g>
			</g>
			<path class="st4" d="M285.98,1243.11c0.13,60.45,0.4,122.26,0.4,181.35c31.18,0.36,62.35,0.71,93.53,1.07
				c0-13.04-0.45-38.59-0.45-38.59s-42.08,1.65-63.06,1.65c-0.07-13.77-0.13-23.9-0.2-37.67c13.2,0,24.97-0.94,37.73-0.94
				c3.35-0.21,7.28-0.15,10.63-0.36c0-15.46,0.35-10.17,0.35-41.97c-14.59,0.23-34.2,0.75-48.79,0.98c0-11.44-0.48-29.48-0.48-41.29
				c21.7,0,66.34-1.03,66.34-1.03s-0.19-19.02-0.19-32.54c-32.78,0-63.79,0.3-95.8,0.3
				C285.98,1239.13,285.99,1242.56,285.98,1243.11z"/>
			<path class="st4" d="M455.37,1425.6c-20.07-85.88-21.04-86.1-45.73-191.75c13.41,0,17.08,0.27,38.45,0.27
				c10.6,45.37,21.33,91.87,32.93,136.85c6.24,0,6.8,0.03,10.71,0.03c6.31-43.95,12.88-89.85,19.19-133.81
				c13.18,0,16.64-0.27,36.72-0.27c-8.33,57.08-15.92,99.69-28.83,188.08C494.3,1425,487.16,1425.6,455.37,1425.6z"/>
			<path class="st4" d="M575.24,1424.99c0,0,0-192.25,0.03-190.12c14.63-0.35,43.88-1.06,43.88-1.06v191.61
				C619.15,1425.42,572.81,1425.42,575.24,1424.99z"/>
			<g>
			</g>
			<path class="st4" d="M823.19,1425.97l0.05-187.39v-0.08c0,0,0,0,0,0c0.23,0,0.33,0,0.65,0c21.78-0.27,42.86-0.39,63.6-1.12
				c26.32,105.96,27.45,110.19,40.55,156.3c0-87.66,0.13-110.75,0.13-155.4c14.77,0,16.94-0.85,31.03-0.5
				c0.14,65.42-1.83,123.89-1.69,189.3c-16.88,0.18-40.8-1.18-57.68-1c-12.82-52.01-25.18-99.39-41.05-151.79
				c4.15,50.86,9.76,106.44,13.55,152.91C851.5,1426.11,838.96,1425.97,823.19,1425.97z"/>
			<path class="st4" d="M1047.11,1285.96c-19.16,0-39.65,0.09-59.36,0.09c-0.6-20.54-0.42-27.09-1.02-47.63
				c47.14,0,106.98-0.55,154.86-0.55c1.02,21.92,1.14,26.88,1.14,47.81c-20.45-0.03-36.94,0.42-59.05,0.42
				c1.1,39.14,1.44,101.19,2.54,140.33c-13.82,0-26.45,0.27-41.72,0.27C1044.5,1381.61,1047.11,1310.15,1047.11,1285.96z"/>
		</g>
		<g>
			<g>
			</g>
			<path class="st4" d="M303.81,1229.11c0.13,60.45,0.4,122.26,0.4,181.35c31.18,0.36,62.35,0.71,93.53,1.07
				c0-13.04-0.45-38.59-0.45-38.59s-42.08,1.65-63.06,1.65c-0.07-13.77-0.13-23.9-0.2-37.67c13.2,0,24.97-0.94,37.73-0.94
				c3.35-0.21,7.28-0.15,10.63-0.36c0-15.46,0.35-10.17,0.35-41.97c-14.59,0.23-34.2,0.75-48.79,0.98c0-11.44-0.48-29.48-0.48-41.29
				c21.7,0,66.34-1.03,66.34-1.03s-0.19-19.02-0.19-32.54c-32.78,0-63.79,0.3-95.8,0.3
				C303.82,1225.13,303.83,1228.56,303.81,1229.11z"/>
			<path class="st4" d="M473.2,1411.6c-20.07-85.88-21.04-86.1-45.73-191.75c13.41,0,17.08,0.27,38.45,0.27
				c10.6,45.37,21.33,91.87,32.93,136.85c6.24,0,6.8,0.03,10.71,0.03c6.31-43.95,12.88-89.85,19.19-133.81
				c13.18,0,16.64-0.27,36.72-0.27c-8.33,57.08-15.92,99.69-28.83,188.08C512.13,1411,504.99,1411.6,473.2,1411.6z"/>
			<path class="st4" d="M593.08,1410.99c0,0,0-192.25,0.03-190.12c14.63-0.35,43.88-1.06,43.88-1.06v191.61
				C636.98,1411.42,590.64,1411.42,593.08,1410.99z"/>
			<g>
			</g>
			<path class="st4" d="M841.03,1411.97l0.05-187.39v-0.08c0,0,0,0,0,0c0.23,0,0.33,0,0.65,0c21.78-0.27,42.86-0.39,63.6-1.12
				c26.32,105.96,27.45,110.19,40.55,156.3c0-87.66,0.13-110.75,0.13-155.4c14.77,0,16.94-0.85,31.03-0.5
				c0.14,65.42-1.83,123.89-1.69,189.3c-16.88,0.18-40.8-1.18-57.68-1c-12.82-52.01-25.18-99.39-41.05-151.79
				c4.15,50.86,9.76,106.44,13.55,152.91C869.33,1412.11,856.79,1411.97,841.03,1411.97z"/>
			<path class="st4" d="M1064.95,1271.96c-19.16,0-39.65,0.09-59.36,0.09c-0.6-20.54-0.42-27.09-1.02-47.63
				c47.14,0,106.98-0.55,154.86-0.55c1.02,21.92,1.14,26.88,1.14,47.81c-20.45-0.03-36.94,0.42-59.05,0.42
				c1.1,39.14,1.44,101.19,2.54,140.33c-13.82,0-26.45,0.27-41.72,0.27C1062.34,1367.61,1064.95,1296.15,1064.95,1271.96z"/>
		</g>
		<g>
			<g>
			</g>
			<path class="st4" d="M321.98,1211.11c0.13,60.45,0.4,122.26,0.4,181.35c31.18,0.36,62.35,0.71,93.53,1.07
				c0-13.04-0.45-38.59-0.45-38.59s-42.08,1.65-63.06,1.65c-0.07-13.77-0.13-23.9-0.2-37.67c13.2,0,24.97-0.94,37.73-0.94
				c3.35-0.21,7.28-0.15,10.63-0.36c0-15.46,0.35-10.17,0.35-41.97c-14.59,0.23-34.2,0.75-48.79,0.98c0-11.44-0.48-29.48-0.48-41.29
				c21.7,0,66.34-1.03,66.34-1.03s-0.19-19.02-0.19-32.54c-32.78,0-63.79,0.3-95.8,0.3
				C321.98,1207.13,321.99,1210.56,321.98,1211.11z"/>
			<path class="st4" d="M491.37,1393.6c-20.07-85.88-21.04-86.1-45.73-191.75c13.41,0,17.08,0.27,38.45,0.27
				c10.6,45.37,21.33,91.87,32.93,136.85c6.24,0,6.8,0.03,10.71,0.03c6.31-43.95,12.88-89.85,19.19-133.81
				c13.18,0,16.64-0.27,36.72-0.27c-8.33,57.08-15.92,99.69-28.83,188.08C530.3,1393,523.16,1393.6,491.37,1393.6z"/>
			<path class="st4" d="M611.24,1392.99c0,0,0-192.25,0.03-190.12c14.63-0.35,43.88-1.06,43.88-1.06v191.61
				C655.15,1393.42,608.81,1393.42,611.24,1392.99z"/>
			<g>
			</g>
			<path class="st4" d="M859.19,1393.97l0.05-187.39v-0.08c0,0,0,0,0,0c0.23,0,0.33,0,0.65,0c21.78-0.27,42.86-0.39,63.6-1.12
				c26.32,105.96,27.45,110.19,40.55,156.3c0-87.66,0.13-110.75,0.13-155.4c14.77,0,16.94-0.85,31.03-0.5
				c0.14,65.42-1.83,123.89-1.69,189.3c-16.88,0.18-40.8-1.18-57.68-1c-12.82-52.01-25.18-99.39-41.05-151.79
				c4.15,50.86,9.76,106.44,13.55,152.91C887.5,1394.11,874.96,1393.97,859.19,1393.97z"/>
			<path class="st4" d="M1083.11,1253.96c-19.16,0-39.65,0.09-59.36,0.09c-0.6-20.54-0.42-27.09-1.02-47.63
				c47.14,0,106.98-0.55,154.86-0.55c1.02,21.92,1.14,26.88,1.14,47.81c-20.45-0.03-36.94,0.42-59.05,0.42
				c1.1,39.14,1.44,101.19,2.54,140.33c-13.82,0-26.45,0.27-41.72,0.27C1080.5,1349.61,1083.11,1278.15,1083.11,1253.96z"/>
		</g>
		<g>
			<g>
			</g>
			<path class="st4" d="M337.98,1193.11c0.13,60.45,0.4,122.26,0.4,181.35c31.18,0.36,62.35,0.71,93.53,1.07
				c0-13.04-0.45-38.59-0.45-38.59s-42.08,1.65-63.06,1.65c-0.07-13.77-0.13-23.9-0.2-37.67c13.2,0,24.97-0.94,37.73-0.94
				c3.35-0.21,7.28-0.15,10.63-0.36c0-15.46,0.35-10.17,0.35-41.97c-14.59,0.23-34.2,0.75-48.79,0.98c0-11.44-0.48-29.48-0.48-41.29
				c21.7,0,66.34-1.03,66.34-1.03s-0.19-19.02-0.19-32.54c-32.78,0-63.79,0.3-95.8,0.3
				C337.98,1189.13,337.99,1192.56,337.98,1193.11z"/>
			<path class="st4" d="M507.37,1375.6c-20.07-85.88-21.04-86.1-45.73-191.75c13.41,0,17.08,0.27,38.45,0.27
				c10.6,45.37,21.33,91.87,32.93,136.85c6.24,0,6.8,0.03,10.71,0.03c6.31-43.95,12.88-89.85,19.19-133.81
				c13.18,0,16.64-0.27,36.72-0.27c-8.33,57.08-15.92,99.69-28.83,188.08C546.3,1375,539.16,1375.6,507.37,1375.6z"/>
			<path class="st4" d="M627.24,1374.99c0,0,0-192.25,0.03-190.12c14.63-0.35,43.88-1.06,43.88-1.06v191.61
				C671.15,1375.42,624.81,1375.42,627.24,1374.99z"/>
			<g>
			</g>
			<path class="st4" d="M875.19,1375.97l0.05-187.39v-0.08c0,0,0,0,0,0c0.23,0,0.33,0,0.65,0c21.78-0.27,42.86-0.39,63.6-1.12
				c26.32,105.96,27.45,110.19,40.55,156.3c0-87.66,0.13-110.75,0.13-155.4c14.77,0,16.94-0.85,31.03-0.5
				c0.14,65.42-1.83,123.89-1.69,189.3c-16.88,0.18-40.8-1.18-57.68-1c-12.82-52.01-25.18-99.39-41.05-151.79
				c4.15,50.86,9.76,106.44,13.55,152.91C903.5,1376.11,890.96,1375.97,875.19,1375.97z"/>
			<path class="st4" d="M1099.11,1235.96c-19.16,0-39.65,0.09-59.36,0.09c-0.6-20.54-0.42-27.09-1.02-47.63
				c47.14,0,106.98-0.55,154.86-0.55c1.02,21.92,1.14,26.88,1.14,47.81c-20.45-0.03-36.94,0.42-59.05,0.42
				c1.1,39.14,1.44,101.19,2.54,140.33c-13.82,0-26.45,0.27-41.72,0.27C1096.5,1331.61,1099.11,1260.15,1099.11,1235.96z"/>
		</g>
		<g>
			<g>
			</g>
			<path class="st5" d="M357.98,1181.39c0.13,60.45,0.4,122.26,0.4,181.35c31.18,0.36,62.35,0.71,93.53,1.07
				c0-13.04-0.45-38.59-0.45-38.59s-42.08,1.65-63.06,1.65c-0.07-13.77-0.13-23.9-0.2-37.67c13.2,0,24.97-0.94,37.73-0.94
				c3.35-0.21,7.28-0.15,10.63-0.36c0-15.46,0.35-10.17,0.35-41.97c-14.59,0.23-34.2,0.75-48.79,0.98c0-11.44-0.48-29.48-0.48-41.29
				c21.7,0,66.34-1.03,66.34-1.03s-0.19-19.02-0.19-32.54c-32.78,0-63.79,0.3-95.8,0.3
				C357.98,1177.41,357.99,1180.84,357.98,1181.39z"/>
			<path class="st5" d="M527.37,1363.88c-20.07-85.88-21.04-86.1-45.73-191.75c13.41,0,17.08,0.27,38.45,0.27
				c10.6,45.37,21.33,91.87,32.93,136.85c6.24,0,6.8,0.03,10.71,0.03c6.31-43.95,12.88-89.85,19.19-133.81
				c13.18,0,16.64-0.27,36.72-0.27c-8.33,57.08-15.92,99.69-28.83,188.08C566.3,1363.29,559.16,1363.88,527.37,1363.88z"/>
			<path class="st5" d="M647.24,1363.27c0,0,0-192.25,0.03-190.12c14.63-0.35,43.88-1.06,43.88-1.06v191.61
				C691.15,1363.71,644.81,1363.71,647.24,1363.27z"/>
			<g>
			</g>
			<path class="st5" d="M895.19,1364.26l0.05-187.39v-0.08c0,0,0,0,0,0c0.23,0,0.33,0,0.65,0c21.78-0.27,42.86-0.39,63.6-1.12
				c26.32,105.96,27.45,110.19,40.55,156.3c0-87.66,0.13-110.75,0.13-155.4c14.77,0,16.94-0.85,31.03-0.5
				c0.14,65.42-1.83,123.89-1.69,189.3c-16.88,0.18-40.8-1.18-57.68-1c-12.82-52.01-25.18-99.39-41.05-151.79
				c4.15,50.86,9.76,106.44,13.55,152.91C923.5,1364.39,910.96,1364.26,895.19,1364.26z"/>
			<path class="st5" d="M1119.11,1224.25c-19.16,0-39.65,0.09-59.36,0.09c-0.6-20.54-0.42-27.09-1.02-47.63
				c47.14,0,106.98-0.55,154.86-0.55c1.02,21.92,1.14,26.88,1.14,47.81c-20.45-0.03-36.94,0.42-59.05,0.42
				c1.1,39.14,1.44,101.19,2.54,140.33c-13.82,0-26.45,0.27-41.72,0.27C1116.5,1319.89,1119.11,1248.44,1119.11,1224.25z"/>
		</g>
	</g>
	<text transform="matrix(1 0 0 1 152.7366 936.7571)" class="st6 st7 st8">DEVIANT</text>
	<text transform="matrix(1 0 0 1 160.7366 926.7571)" class="st6 st7 st8">DEVIANT</text>
	<text transform="matrix(1 0 0 1 170.7366 912.7571)" class="st6 st7 st8">DEVIANT</text>
	<text transform="matrix(1 0 0 1 180.7366 900.7571)" class="st6 st7 st8">DEVIANT</text>
	<text transform="matrix(1 0 0 1 188.7366 892.7571)" class="st6 st7 st8">DEVIANT</text>
	<text transform="matrix(1 0 0 1 196.7366 879.3877)" class="st9 st7 st8">DEVIANT</text>
</g>
<g id="Layer_6">
	<text transform="matrix(1 0 0 1 174.7053 876.2344)" class="st10 st11 st12">M B crunch</text>
	<text transform="matrix(1 0 0 1 174.7053 746.2344)" class="st13 st11 st12">M B crunch</text>
	<text transform="matrix(1 0 0 1 174.7053 922.3352)" class="st14 st11 st12">M B crunch</text>
	<text transform="matrix(1 0 0 1 174.7053 956.2344)" class="st15 st11 st12">M B crunch</text>
	<text transform="matrix(1 0 0 1 174.7053 981.4717)" class="st16 st11 st12">M B crunch</text>
	<text transform="matrix(1 0 0 1 174.7053 997.4717)" class="st17 st11 st12">M B crunch</text>
</g>
<g id="Layer_3" class="st0">
	<g id="Layer_2" class="st18">
	</g>
	<g class="st19">
		<g>
			<g>
				<path class="st20" d="M621.33,605.25c9.68-2.62,13.52,7.24,5.57,19.98c12.6-3.09,18.38,7.17,12.94,22.98
					c12.99-20.9,16.97-40.67,12.94-52.82c-0.04-0.14-0.08-0.27-0.12-0.4c0-0.01-0.01-0.03-0.01-0.04c-1.39-4.36-3.05-5.72-1.8-8.65
					c1.46-3.41,10.62-5,13.74-7.02c-6.46-1.41-21.42-2.06-27.89-3.47c1.72,4.02-0.32,6.46-4.06,7.57
					c-22.14,2.53-55.77,28.82-78.35,60.17c-23.88,33.16-34.71,69.03-29.2,89.65c2.94,10.99,15.04,13.21,30.18,5.53
					s32.62-24.91,43.59-42.95c-10.98-8.34-21.96-16.68-32.94-25.02c7.65-13.52,14.37-26.55,23.7-38.89
					C598.97,619.55,611.65,607.88,621.33,605.25z M576.78,710.71c-9.29,12.54-25.2,19.46-31.62,13.75
					c-6.42-5.71-1.78-22.64,8.82-33.37C561.58,697.63,569.18,704.17,576.78,710.71z"/>
				<path class="st20" d="M713.63,660.9c15.19-21.51,30.38-43.02,45.57-64.53c0.03,0.04,0.06,0.07,0.09,0.11
					c0.57-5.81,1.13-11.62,1.7-17.43c-9.67,0.12-19.33,1.15-28.27,2.69c-0.92,2.3-1.84,4.59-2.76,6.89
					c-10.66,3.9-23.45,12.58-37.65,26.66c-32.66,32.36-69.34,94.12-71.4,123.97s38.67,7.89,67.19-38.5
					c-20.63,24.13-39.07,27.19-35.1,5.83c3.97-21.36,29.15-60.67,47.92-74.82C719.69,617.63,726.37,632.93,713.63,660.9z"/>
				<path class="st20" d="M789.64,677.33c-5.59,18.51-34.04,50.94-39.15,45.6c-5.11-5.33,8.17-34.3,24.41-58.79
					c16.24-24.48,34.29-45.23,51.48-64.84c-0.02-0.03-0.03-0.06-0.05-0.09c0.06-0.01,0.11-0.02,0.17-0.04
					c5.11-5.24,9.38-10.05,13.78-15.89c-6.96-1.23-14.08-0.18-20.46,0.12c-3.82,6.62-7.57,11.37-9.24,14.37
					c-35.38,48.88-70.77,97.76-106.15,146.65c5.27-0.25,10.55-0.5,15.82-0.75c4.99-8.79,11.42-18.42,17.85-28.04
					c-16.96,29.9-19.18,52.42-4.41,44.67s42.89-43.85,55.76-71.6C789.51,684.91,789.58,681.12,789.64,677.33z"/>
				<path class="st20" d="M964.12,743.33c16.83-26.06,14.36-63.19-4.77-71.92c13.14-19.24,26.28-38.47,39.42-57.71
					c11.27-13.6,36.25-26.69,48.69-33.71c-3.58,0.24-3.9,0.2-5.59,0.31c-13.47,3.06-22.16,5.02-32.11,11.29
					c-0.68,0.43-1.42-0.47-0.85-1.04c2.48-2.55,4.89-5.06,7.64-7.81c-6.63,0.08-14.22-4.51-17.85-0.32
					c-3.4,3.94-4.86,5.69-5.29,6.83c-0.01,0-0.03-0.01-0.03-0.01s-75.37,127.4-111.22,172.09c3.9,2.55,7.81,5.09,11.71,7.64
					c3.35-4.03,5.02-7.35,8.03-10.67C914.52,777.12,947.3,769.39,964.12,743.33z M914.45,743.15c10.95-16.76,21.9-33.52,32.86-50.28
					c13.12,3.43,15.58,27.79,4.5,44.55S920.16,757.23,914.45,743.15z"/>
				<path class="st20" d="M1106.24,603.63c3.4-6.86,6.13-14.04,8.15-21.43c-7.75,0.74-15.5,1.48-22.71,2.14
					c-0.58,2.78-1.16,5.57-1.74,8.35c0,0-0.01-0.01-0.01-0.01c-28.36,56.7-56.71,113.4-85.07,170.1
					c-7.76-4.19-15.52-8.38-23.28-12.57c-5.73,10.03-11.46,20.07-17.19,30.1c8.38,2.48,16.76,4.96,24.29,6.61
					c-15.77,32.06-31.54,64.12-47.31,96.18c7.85,2.74,15.7,5.47,23.55,8.21c16.3-31.17,32.6-62.33,48.89-93.5
					c8.15,2.86,16.3,5.72,24.45,8.58c4.01-9.2,8.01-18.4,12.02-27.59c-7.47-2.98-14.94-5.96-22.42-8.93
					c26.17-55.38,52.35-110.76,78.52-166.14C1106.33,603.69,1106.29,603.66,1106.24,603.63z"/>
				<path class="st20" d="M901.17,614.19c12.03,4.68,15.39,26.73,4.72,41.09c8.8-8.81,17.6-17.63,26.4-26.44
					c0.1-0.65,0.18-1.29,0.26-1.93c0.13,0.45,0.25,0.86,0.33,1.19c6.31-7.55,6.85-38.28,11.28-47.07
					c-7.37,0.2-15.83,0.55-22.17,0.93c-3.72,3.46-7.63,2.61-12.02,3.18c0.85,0.11,1.79,0.67,2.78,1.56
					c-14.21-4.36-33.18,5.13-44.65,22.34c-26.98,40.5-53.97,81-80.95,121.5c2.49,4.93,4.98,9.86,7.47,14.78
					c12.76-21.08,25.51-42.16,38.27-63.23c3.57,30.15,7.15,60.31,10.72,90.46c5.77-14.27,11.54-28.54,16.39-41.38
					c-4.43-14.42-8.9-29.06-9.62-45.53c-0.71-16.47,2.79-35.27,12.46-50.55C872.52,619.81,889.14,609.51,901.17,614.19z"/>
				<path class="st20" d="M564.69,594.72c0.04-0.05,0.04-0.13,0-0.19c-1.05-1.69-6.51-10.44-9.94-15.68
					c-0.04-0.06-0.11-0.09-0.18-0.07c-4.28,0.93-15.77-0.05-19.93,0.91c-0.01,0-0.02,0-0.03,0c-27.84,0.96-40.7-2.07-68.55-1.11
					c-18.72,0.65-22.37,6.08-52.03-7.69c-0.08-0.04-0.17-0.01-0.22,0.07c-0.99,1.51-2.88,1.66-2.75,7.18
					c-0.09,2.06-0.19,3.94,0.02,5.46C356.02,639.12,300.96,694.66,245.9,750.2c21.65,36.35,69.44,62.57,112.84,49.82
					s111.6-60.08,127.31-75.79C496.08,714.2,571.29,607.2,564.69,594.72z M460.05,713.73c-19.24,24.16-66.28,49.37-95.5,58.99
					c-29.22,9.62-60.33-6.57-73.78-30.2c38.16-38.45,91.59-98.69,129.75-137.14c25.04,3.85,79.55,12.12,102.81,15.69
					C535.91,623.02,477.19,692.22,460.05,713.73z"/>
			</g>
		</g>
	</g>
</g>
<g id="Layer_1" class="st0">
	<g class="st18">
		<g>
			<path class="st21" d="M666.18,551.88c-2.38,9.98-13.76,13.79-20.96,8.58c-7.2-5.2-10.18-16.45-9.45-26.75
				c0.73-10.3,4.51-19.95,7.78-30.23c17.02-0.19,34.04-0.39,51.06-0.58c3.64-14.01,0.4-30.14-8.06-40.2
				c-8.46-10.06-21.77-13.61-33.18-8.84c-21.41,8.95-39.12,32.52-42.25,59.73c-3.12,27.21,10.01,56.23,31.2,64.66
				s47.85-7.23,54.21-33.68C689.37,555.21,675.81,558.48,666.18,551.88z M665.71,466.43c10.6-0.56,20.39,9.39,19.46,19.78
				c-12.38,0.55-24.77,1.1-37.15,1.64C646.29,477.93,655.11,466.99,665.71,466.43z"/>
		</g>
	</g>
	<path class="st22" d="M718.49,452.15c6.5-0.87,13-1.73,19.49-2.6c3.26,34.95,6.52,69.89,9.78,104.84
		c6.75-34.87,13.5-69.73,20.25-104.6c9.96-0.81,19.93-1.62,29.89-2.43c-21.44,40.23-34.2,86.26-36.84,132.84
		c-9.57,0.87-19.15,1.73-28.72,2.6C727.43,538.76,722.51,494.71,718.49,452.15z"/>
	<path class="st23" d="M827.4,447.9c4.78-0.65,9.55-1.3,14.33-1.95c-0.28,45.56-0.57,91.12-0.85,136.69c-7.01,0-14.01,0-21.02-0.01
		C822.45,537.14,825.04,491.65,827.4,447.9z"/>
	<path class="st23" d="M828.28,409.97c6.28-0.92,12.11,7.2,10.06,14.02c-2.05,6.82-11.02,9.19-15.5,4.08
		C818.37,422.98,820.16,411.16,828.28,409.97z"/>
	<g class="st18">
		<g>
			<path class="st24" d="M918,450.17c-22.71,2.87-38.31,28.64-34.08,50.13c7.75-1.15,15.51-2.3,23.26-3.46
				c-8.24-2.34-10.11-13.99-3.96-19.62c6.15-5.63,16.98-4.94,23.58,0.19s9.38,13.56,9.26,21.57c-0.12,8.01-2.76,15.79-5.39,23.43
				c-12.32-7.91-30.61-6.49-41.41,3.21s-12.97,26.63-4.89,38.35s25.51,16.94,39.49,11.84c-0.56,1.79-1.13,3.59-1.69,5.38
				c7.52-0.32,15.05-0.63,22.57-0.95c4.93-30.3,9.86-60.6,14.8-90.9C962.96,468.29,940.71,447.3,918,450.17z M910.28,564.58
				c-12.44,1.71-24.12-11.49-19.9-22.51c4.22-11.02,22.28-14.49,30.78-5.92C931.08,546.14,922.72,562.86,910.28,564.58z"/>
		</g>
	</g>
	<path class="st25" d="M1003.56,455.99c5.3-1.83,10.6-3.65,15.91-5.48c-0.05,10.05-0.11,20.09-0.16,30.14
		c1.21-6.52,2.47-13.18,5.9-18.97c3.43-5.79,9.48-10.65,16.51-11.05c7.03-0.4,14.38,4.99,14.02,11.6
		c-2.13,38.96-4.25,77.92-6.38,116.89c-6.92,1.27-13.85,2.55-20.77,3.82c3.52-24.95,7.04-49.89,10.56-74.84
		c0.72-5.13-3.81-10.35-9.29-10.71c-5.48-0.36-10.8,4.21-10.9,9.38c-0.48,25.08-0.96,50.15-1.45,75.23
		c-6.62,0.4-13.24,0.81-19.86,1.21C1000.06,539.78,1002.48,496.38,1003.56,455.99z"/>
	<path class="st26" d="M1091.44,419.42c1.03-27.08,2.07-54.16,3.1-81.23c9.74,0.66,19.48,1.31,29.21,1.97
		c0.01,26.63,0.02,53.27,0.03,79.9c10.12,0.67,20.24,1.34,30.36,2c-0.84,7.6-1.68,15.2-2.52,22.8c-9.48-0.37-18.95-0.74-28.43-1.1
		c-2.9,46.43-5.81,92.86-8.71,139.28c-7.77,0.76-15.54,1.51-23.32,2.27c1.34-48.04,2.67-96.08,4.01-144.11
		c-10.44,0.37-20.88,0.74-31.33,1.12c-0.51-8.73-1.02-17.46-1.54-26.19C1072.48,417.12,1082.63,418.12,1091.44,419.42z"/>
	<g class="st18">
		<g>
			<path class="st27" d="M563.51,388.2c-28.3-39.47-96.84-54.5-150.63-44.01c-0.66,77.98-1.32,155.95-1.98,233.93
				c43.35,3.15,86.57,5.41,129.74,4.02c26.84-0.87,50.85-35.59,57.32-74.94C605.22,463,591.81,427.67,563.51,388.2z M564.56,493.19
				c-4.14,27.22-19.48,51.25-36.64,51.85c-27.59,0.96-55.22-0.6-82.93-2.78c0.42-53.95,0.84-107.9,1.26-161.85
				c34.38-7.26,78.19,3.14,96.28,30.45C560.63,438.17,569.21,462.61,564.56,493.19z"/>
		</g>
	</g>
	<path class="st28" d="M1097.47,826.52c0,0,0-192.25,0.02-190.12c9.15-0.35,27.44-1.06,27.44-1.06v191.61
		C1124.93,826.95,1095.95,826.95,1097.47,826.52z"/>
</g>
</svg>
